<?xml version="1.0" standalone="no"?>
<!DOCTYPE svg PUBLIC "-//W3C//DTD SVG 20010904//EN"
 "http://www.w3.org/TR/2001/REC-SVG-20010904/DTD/svg10.dtd">
<svg version="1.0" xmlns="http://www.w3.org/2000/svg"
 width="700.000000pt" height="700.000000pt" viewBox="0 0 700.000000 700.000000"
 preserveAspectRatio="xMidYMid meet">
<metadata>
Created by potrace 1.14, written by Peter Selinger 2001-2017
</metadata>
<g transform="translate(0.000000,700.000000) scale(0.100000,-0.100000)"
fill="#000000" stroke="none">
<path d="M3352 6984 c-164 -44 -310 -158 -406 -318 -19 -32 -37 -63 -39 -69
-1 -5 -24 6 -50 26 -109 83 -243 127 -393 127 -167 0 -335 -62 -401 -149 -45
-58 -56 -108 -50 -221 10 -164 68 -291 192 -416 65 -67 97 -89 173 -126 82
-41 90 -47 75 -59 -27 -23 -130 -166 -170 -237 -20 -36 -53 -104 -73 -150
l-37 -85 -75 -27 c-104 -38 -246 -113 -336 -177 l-75 -54 -38 15 c-175 70
-396 21 -535 -118 -120 -121 -178 -303 -144 -453 10 -41 8 -45 -26 -90 -47
-61 -92 -155 -100 -210 l-6 -43 -50 0 c-65 0 -137 -39 -175 -93 -28 -40 -28
-42 -27 -186 1 -224 52 -488 144 -755 52 -151 91 -236 120 -261 35 -32 101
-27 139 9 49 47 48 69 -8 212 -61 159 -102 296 -130 435 -23 115 -51 321 -51
381 l0 38 2701 0 2702 0 -7 -93 c-21 -308 -109 -630 -250 -922 -126 -261 -276
-478 -468 -679 l-104 -110 -85 41 c-91 45 -205 73 -296 73 -152 -1 -318 -68
-432 -176 l-68 -63 -52 50 c-74 72 -162 125 -255 156 -69 23 -98 27 -201 27
-104 0 -130 -3 -196 -26 -102 -36 -184 -86 -254 -154 l-58 -58 -31 36 c-79 90
-215 166 -346 194 -204 43 -459 -37 -594 -187 l-37 -40 -69 65 c-193 182 -479
226 -715 110 l-70 -34 -98 102 c-54 57 -139 155 -188 220 -49 64 -99 124 -111
133 -66 46 -168 -17 -168 -104 0 -46 179 -274 353 -449 383 -388 837 -648
1362 -782 83 -21 185 -44 228 -50 l77 -13 0 -107 0 -107 -92 -45 c-171 -84
-312 -199 -424 -347 -73 -97 -158 -259 -175 -335 -19 -87 16 -173 92 -223 l43
-28 595 -3 c460 -2 601 0 619 10 48 25 68 111 36 156 -36 52 -31 52 -619 52
-300 0 -545 2 -545 5 0 3 14 32 30 65 l30 60 328 0 c295 0 329 2 348 18 45 36
58 107 28 150 -33 48 -57 52 -300 52 l-227 0 24 26 c44 48 196 140 294 179
133 52 135 56 135 248 l0 147 210 0 210 0 0 -147 c0 -193 1 -195 139 -251 179
-72 346 -201 441 -342 35 -52 110 -190 110 -203 0 -3 -58 -7 -129 -9 -121 -3
-131 -5 -155 -27 -51 -48 -51 -125 0 -169 26 -23 31 -23 199 -20 169 3 172 3
214 31 76 50 111 136 92 223 -17 76 -102 238 -175 335 -112 148 -253 263 -423
347 l-93 45 0 107 0 107 78 13 c115 18 362 83 487 128 433 156 793 388 1115
718 327 335 542 691 683 1132 74 229 126 518 128 713 1 119 -22 169 -101 217
-30 17 -64 32 -77 32 -20 0 -23 5 -23 38 0 102 -66 237 -157 322 -103 97 -210
140 -344 140 l-77 0 -28 48 c-84 144 -258 327 -406 425 -94 63 -245 139 -327
165 -49 15 -56 21 -70 57 -28 71 -100 215 -131 260 -53 77 -147 83 -191 11
-29 -48 -24 -83 26 -166 25 -41 45 -78 45 -82 0 -4 -64 -7 -142 -7 -237 -1
-413 -42 -623 -146 -71 -35 -166 -92 -210 -125 -44 -33 -82 -60 -85 -60 -3 0
-41 27 -85 60 -44 33 -138 90 -210 125 -210 104 -386 145 -622 146 l-143 0 30
58 c68 136 220 303 362 399 207 139 415 203 668 203 253 0 455 -61 665 -199
51 -35 79 -47 107 -47 48 0 90 32 102 77 18 72 -7 108 -131 184 l-66 40 -2
140 c-3 161 -22 247 -83 377 -94 199 -258 342 -447 392 -73 19 -222 19 -293
-1z m311 -242 c156 -77 260 -241 286 -452 16 -128 19 -121 -36 -103 -236 73
-511 78 -763 15 l-110 -28 0 26 c3 222 111 435 267 527 71 41 121 53 210 50
67 -3 92 -9 146 -35z m-1009 -256 c51 -25 90 -53 125 -92 51 -56 56 -69 42
-126 l-6 -27 -110 64 c-60 36 -121 65 -135 65 -65 0 -118 -68 -106 -134 8 -42
31 -62 169 -146 l106 -64 -27 -18 c-67 -44 -237 5 -341 98 -85 77 -146 216
-139 316 3 36 8 45 37 62 59 34 120 46 219 42 83 -3 101 -7 166 -40z m132
-1361 c299 -53 568 -220 752 -470 66 -90 148 -265 177 -379 14 -54 25 -105 25
-112 0 -12 -151 -14 -943 -14 l-944 0 -17 62 c-36 130 -109 230 -220 304 -31
20 -56 39 -56 41 0 9 53 85 107 153 168 212 436 368 708 414 111 19 304 19
411 1z m1835 0 c311 -54 600 -238 767 -487 l45 -68 -29 -22 c-41 -32 -81 -75
-116 -126 -34 -49 -77 -162 -78 -202 0 -14 -3 -35 -6 -48 l-6 -22 -616 2 -615
3 -22 110 c-40 192 -123 381 -231 525 -63 84 -65 78 43 150 136 91 296 156
450 184 104 19 310 20 414 1z m-3121 -260 c0 -3 -20 -31 -44 -62 -24 -32 -62
-91 -86 -130 -24 -40 -44 -73 -45 -73 -8 0 -113 -21 -127 -26 -22 -7 -23 12
-5 84 24 90 95 169 182 200 30 11 125 16 125 7z m4344 -465 c84 -43 156 -147
156 -227 l0 -23 -285 0 -285 0 0 33 c0 80 94 198 183 231 63 23 170 16 231
-14z m-4388 -49 c57 -26 119 -84 143 -135 12 -23 21 -48 21 -54 0 -9 -71 -12
-279 -12 l-280 0 11 33 c27 76 78 130 161 168 57 25 167 25 223 0z m586 -2342
c138 -29 235 -106 300 -236 47 -93 69 -114 123 -116 50 -1 85 29 126 112 166
332 610 330 769 -4 41 -86 66 -108 120 -108 53 0 80 23 117 103 161 338 602
344 772 9 43 -84 76 -113 126 -112 54 2 81 26 119 108 82 177 263 277 446 246
72 -12 120 -29 120 -42 0 -5 -44 -39 -97 -77 -349 -247 -744 -406 -1178 -474
-203 -32 -607 -32 -810 0 -414 65 -773 204 -1120 435 -49 33 -110 76 -133 96
-43 34 -43 35 -20 44 69 26 146 32 220 16z"/>
<path d="M3414 6721 c-97 -59 -52 -201 65 -201 60 0 96 26 112 79 29 98 -86
178 -177 122z"/>
<path d="M3201 6517 c-99 -34 -97 -168 3 -206 99 -38 191 63 142 157 -24 46
-89 68 -145 49z"/>
<path d="M3730 6521 c-80 -19 -113 -98 -70 -168 36 -59 136 -67 184 -14 74 81
-6 208 -114 182z"/>
<path d="M2323 5055 c-70 -30 -82 -129 -22 -179 29 -24 37 -26 136 -26 l105 0
34 34 c24 24 34 43 34 65 0 44 -25 88 -60 106 -38 19 -182 20 -227 0z"/>
<path d="M1914 4826 c-43 -19 -64 -53 -64 -104 0 -35 6 -49 29 -73 29 -28 32
-29 131 -29 118 0 149 12 175 66 15 31 15 43 6 76 -18 60 -56 78 -161 78 -49
-1 -98 -7 -116 -14z"/>
<path d="M2743 4785 c-91 -39 -86 -169 8 -202 19 -7 63 -12 99 -12 36 0 80 5
99 12 95 33 98 164 6 203 -44 18 -170 18 -212 -1z"/>
<path d="M2283 4521 c-64 -40 -66 -133 -5 -181 21 -17 40 -20 129 -20 l105 0
34 34 c46 46 48 101 5 148 -29 33 -30 33 -133 36 -89 2 -107 0 -135 -17z"/>
<path d="M3183 4521 c-64 -40 -66 -133 -5 -181 21 -17 40 -20 129 -20 l105 0
34 34 c46 46 48 101 5 148 -29 33 -30 33 -133 36 -89 2 -107 0 -135 -17z"/>
<path d="M5780 3703 c-27 -24 -35 -44 -56 -138 -13 -60 -45 -168 -70 -240 -26
-71 -48 -151 -51 -176 -4 -41 -1 -51 25 -80 26 -29 37 -34 75 -34 52 0 89 28
114 85 59 142 143 438 143 508 0 25 -9 43 -34 68 -45 45 -101 47 -146 7z"/>
<path d="M5533 2986 c-17 -8 -39 -27 -49 -43 -10 -15 -42 -65 -71 -110 -41
-63 -53 -91 -53 -121 0 -50 29 -88 79 -103 59 -18 95 5 158 99 104 156 113
199 55 255 -34 33 -77 41 -119 23z"/>
</g>
</svg>
