<svg aria-hidden="true" style="position: absolute; width: 0; height: 0; overflow: hidden;" version="1.1" xmlns="http://www.w3.org/2000/svg" xmlns:xlink="http://www.w3.org/1999/xlink">
<defs>

<symbol id="icon-ice-cream-logo" viewBox="0 0 32 32">
<path d="M15.935 1.208h-0.065c-0.271 0-0.49 0.219-0.49 0.49s0.219 0.49 0.49 0.49h0.065c0.271 0 0.49-0.219 0.49-0.49s-0.219-0.49-0.49-0.49z"></path>
<path d="M17.208 2.188h-0.065c-0.271 0-0.49 0.219-0.49 0.49s0.219 0.49 0.49 0.49h0.065c0.271 0 0.49-0.219 0.49-0.49s-0.219-0.49-0.49-0.49z"></path>
<path d="M14.857 2.188h-0.065c-0.271 0-0.49 0.219-0.49 0.49s0.219 0.49 0.49 0.49h0.065c0.271 0 0.49-0.219 0.49-0.49s-0.219-0.49-0.49-0.49z"></path>
<path d="M9.535 9.894h-0.588c-0.271 0-0.49 0.219-0.49 0.49s0.219 0.49 0.49 0.49h0.588c0.271 0 0.49-0.219 0.49-0.49s-0.219-0.49-0.49-0.49z"></path>
<path d="M11.429 8.849h-0.588c-0.271 0-0.49 0.219-0.49 0.49s0.219 0.49 0.49 0.49h0.588c0.271 0 0.49-0.219 0.49-0.49s-0.219-0.49-0.49-0.49z"></path>
<path d="M13.322 10.090h-0.588c-0.271 0-0.49 0.219-0.49 0.49s0.219 0.49 0.49 0.49h0.588c0.271 0 0.49-0.219 0.49-0.49s-0.219-0.49-0.49-0.49z"></path>
<path d="M15.412 11.265h-0.588c-0.271 0-0.49 0.219-0.49 0.49s0.219 0.49 0.49 0.49h0.588c0.271 0 0.49-0.219 0.49-0.49s-0.219-0.49-0.49-0.49z"></path>
<path d="M11.298 11.265h-0.588c-0.271 0-0.49 0.219-0.49 0.49s0.219 0.49 0.49 0.49h0.588c0.271 0 0.49-0.219 0.49-0.49s-0.219-0.49-0.49-0.49z"></path>
<path d="M25.743 18.384c-0.234-0.136-0.534-0.056-0.669 0.178-0.148 0.255-0.309 0.506-0.479 0.748-0.156 0.221-0.102 0.527 0.119 0.682 0.086 0.060 0.184 0.089 0.281 0.089 0.154 0 0.306-0.073 0.401-0.208 0.186-0.265 0.363-0.541 0.525-0.82 0.136-0.234 0.056-0.534-0.178-0.669z"></path>
<path d="M26.831 14.959c-0.266-0.050-0.521 0.127-0.57 0.393-0.132 0.716-0.343 1.419-0.627 2.090-0.106 0.249 0.011 0.537 0.26 0.642 0.062 0.026 0.127 0.039 0.191 0.039 0.191 0 0.372-0.112 0.451-0.299 0.312-0.736 0.544-1.508 0.689-2.294 0.049-0.266-0.127-0.521-0.393-0.57z"></path>
<path d="M29.077 13.325c-0.168-0.172-0.397-0.275-0.637-0.291-0.015-1.266-1.049-2.291-2.318-2.291-0.112 0-0.222 0.008-0.33 0.024-0.793-1.434-2.138-2.53-3.753-3.010-0.167-0.501-0.398-0.981-0.691-1.429-0.148-0.226-0.452-0.289-0.678-0.141s-0.29 0.452-0.141 0.678c0.14 0.213 0.262 0.435 0.368 0.664-0.227-0.024-0.458-0.037-0.692-0.037-1.611 0-3.083 0.593-4.205 1.568-1.121-0.975-2.594-1.568-4.205-1.568-0.233 0-0.462 0.013-0.688 0.037 0.848-1.821 2.721-3.091 4.893-3.091 1.178 0 2.297 0.367 3.235 1.060 0.217 0.161 0.524 0.115 0.685-0.103s0.115-0.524-0.103-0.685c-0.249-0.184-0.509-0.348-0.778-0.492 0.029-0.199 0.044-0.402 0.044-0.607 0-1.991-1.383-3.611-3.084-3.611-1.179 0-2.205 0.779-2.724 1.92-0.139-0.127-0.29-0.241-0.453-0.341-0.469-0.286-1.009-0.437-1.561-0.437-0.512 0-1.018 0.131-1.464 0.38-0.359 0.2-0.591 0.58-0.604 0.991-0.035 1.081 0.515 2.102 1.436 2.664 0.217 0.133 0.45 0.234 0.692 0.307-0.605 0.647-1.073 1.42-1.36 2.274-0.829 0.246-1.588 0.655-2.236 1.188-0.303-0.145-0.641-0.227-0.998-0.227-1.278 0-2.318 1.040-2.318 2.318 0 0.224 0.033 0.441 0.093 0.646-0.355 0.355-0.595 0.824-0.662 1.347h-0.214c-0.263 0-0.519 0.107-0.702 0.294-0.186 0.19-0.286 0.45-0.276 0.714 0.065 1.634 0.432 3.218 1.091 4.707 0.109 0.247 0.399 0.359 0.646 0.25s0.359-0.399 0.25-0.646c-0.607-1.373-0.946-2.832-1.007-4.339l24.747 0c-0.127 3.134-1.47 6.065-3.781 8.253-0.018 0.018-0.038 0.034-0.056 0.052-0.491-0.347-1.076-0.535-1.688-0.535-0.923 0-1.769 0.431-2.314 1.13-0.545-0.7-1.391-1.13-2.314-1.13s-1.769 0.431-2.314 1.13c-0.545-0.7-1.391-1.13-2.314-1.13s-1.769 0.431-2.314 1.13c-0.545-0.7-1.391-1.13-2.314-1.13-0.564 0-1.111 0.163-1.58 0.464-0.624-0.593-1.184-1.249-1.666-1.949-0.153-0.223-0.458-0.279-0.681-0.126s-0.279 0.458-0.126 0.681c0.526 0.765 1.138 1.48 1.82 2.125 2.029 1.921 4.572 3.142 7.31 3.538v1.022c-1.45 0.557-2.602 1.721-3.122 3.172-0.107 0.299-0.060 0.631 0.126 0.889 0.183 0.254 0.481 0.406 0.796 0.406h4.94c0.271 0 0.49-0.219 0.49-0.49s-0.219-0.49-0.49-0.49l-4.935 0c0.078-0.216 0.175-0.422 0.286-0.621h2.821c0.271 0 0.49-0.219 0.49-0.49s-0.219-0.49-0.49-0.49h-2.071c0.496-0.487 1.11-0.86 1.793-1.070 0.205-0.063 0.346-0.253 0.346-0.468v-1.265c0.324 0.023 0.65 0.035 0.977 0.035s0.653-0.012 0.977-0.035v1.265c0 0.215 0.14 0.405 0.346 0.468 1.312 0.404 2.369 1.402 2.829 2.67h-1.017c-0.271 0-0.49 0.219-0.49 0.49s0.219 0.49 0.49 0.49h1.022c0.315 0 0.613-0.152 0.796-0.406 0.186-0.258 0.233-0.59 0.126-0.889-0.52-1.451-1.673-2.615-3.122-3.172v-1.022c2.737-0.395 5.281-1.617 7.31-3.538 2.5-2.368 3.952-5.541 4.087-8.936 0.011-0.264-0.090-0.524-0.276-0.714zM16 0.98c1.16 0 2.104 1.18 2.104 2.631 0 0.065-0.002 0.13-0.006 0.195-0.667-0.229-1.373-0.348-2.098-0.348-0.735 0-1.441 0.124-2.098 0.351-0.004-0.065-0.007-0.131-0.007-0.197 0-1.451 0.944-2.631 2.104-2.631zM11.139 4.34c-0.62-0.378-0.991-1.066-0.967-1.796 0.002-0.069 0.041-0.133 0.102-0.167 0.301-0.167 0.643-0.256 0.988-0.256 0.372 0 0.736 0.102 1.051 0.294 0.263 0.16 0.48 0.376 0.642 0.627-0.022 0.159-0.034 0.322-0.037 0.488l-0.908-0.554c-0.231-0.141-0.532-0.068-0.673 0.163s-0.068 0.532 0.163 0.673l1.056 0.644c-0.087 0.056-0.173 0.113-0.257 0.173-0.036 0.002-0.072 0.004-0.108 0.004-0.372-0-0.736-0.102-1.051-0.294zM6.726 9.698c0.072 0 0.142 0.006 0.211 0.017-0.336 0.392-0.624 0.825-0.855 1.29-0.241 0.006-0.473 0.049-0.691 0.123-0.002-0.030-0.003-0.061-0.003-0.092 0-0.738 0.601-1.339 1.339-1.339zM4.833 13.030c0.134-0.598 0.668-1.046 1.306-1.046s1.172 0.448 1.306 1.046h-2.611zM8.438 13.030c-0.103-0.815-0.63-1.499-1.353-1.823 0.916-1.629 2.682-2.736 4.71-2.736 2.719 0 4.971 1.988 5.327 4.56h-8.684zM23.805 13.030h-5.694c-0.143-1.235-0.654-2.361-1.421-3.272 0.943-0.802 2.172-1.288 3.515-1.288 1.99 0 3.73 1.066 4.659 2.645-0.629 0.408-1.049 1.113-1.059 1.915zM24.785 13.030c0.017-0.724 0.61-1.308 1.337-1.308s1.32 0.584 1.337 1.308h-2.674zM16 25.673c-2.877 0-5.62-0.968-7.828-2.744 0.248-0.111 0.519-0.17 0.796-0.17 0.838 0 1.581 0.534 1.85 1.327 0.067 0.199 0.254 0.333 0.464 0.333s0.397-0.134 0.464-0.333c0.268-0.794 1.011-1.327 1.85-1.327s1.581 0.534 1.85 1.327c0.067 0.199 0.254 0.333 0.464 0.333s0.397-0.134 0.464-0.333c0.268-0.794 1.011-1.327 1.85-1.327s1.581 0.534 1.85 1.327c0.067 0.199 0.254 0.333 0.464 0.333s0.397-0.134 0.464-0.333c0.268-0.794 1.011-1.327 1.85-1.327 0.322 0 0.633 0.078 0.91 0.225-2.196 1.741-4.912 2.689-7.759 2.689z"></path>
</symbol>

<symbol id="icon-arrow-right2" viewBox="0 0 32 32">
<path d="M19.414 27.414l10-10c0.781-0.781 0.781-2.047 0-2.828l-10-10c-0.781-0.781-2.047-0.781-2.828 0s-0.781 2.047 0 2.828l6.586 6.586h-19.172c-1.105 0-2 0.895-2 2s0.895 2 2 2h19.172l-6.586 6.586c-0.39 0.39-0.586 0.902-0.586 1.414s0.195 1.024 0.586 1.414c0.781 0.781 2.047 0.781 2.828 0z"></path>
</symbol>

<symbol id="icon-facebook" viewBox="0 0 32 32">
<path d="M19 6h5v-6h-5c-3.86 0-7 3.14-7 7v3h-4v6h4v16h6v-16h5l1-6h-6v-3c0-0.542 0.458-1 1-1z"></path>
</symbol>

<symbol id="icon-github" viewBox="0 0 32 32">
<path d="M16 0.395c-8.836 0-16 7.163-16 16 0 7.069 4.585 13.067 10.942 15.182 0.8 0.148 1.094-0.347 1.094-0.77 0-0.381-0.015-1.642-0.022-2.979-4.452 0.968-5.391-1.888-5.391-1.888-0.728-1.849-1.776-2.341-1.776-2.341-1.452-0.993 0.11-0.973 0.11-0.973 1.606 0.113 2.452 1.649 2.452 1.649 1.427 2.446 3.743 1.739 4.656 1.33 0.143-1.034 0.558-1.74 1.016-2.14-3.554-0.404-7.29-1.777-7.29-7.907 0-1.747 0.625-3.174 1.649-4.295-0.166-0.403-0.714-2.030 0.155-4.234 0 0 1.344-0.43 4.401 1.64 1.276-0.355 2.645-0.532 4.005-0.539 1.359 0.006 2.729 0.184 4.008 0.539 3.054-2.070 4.395-1.64 4.395-1.64 0.871 2.204 0.323 3.831 0.157 4.234 1.026 1.12 1.647 2.548 1.647 4.295 0 6.145-3.743 7.498-7.306 7.895 0.574 0.497 1.085 1.47 1.085 2.963 0 2.141-0.019 3.864-0.019 4.391 0 0.426 0.288 0.925 1.099 0.768 6.354-2.118 10.933-8.113 10.933-15.18 0-8.837-7.164-16-16-16z"></path>
</symbol>

<symbol id="icon-bracket-right" viewBox="0 0 22 32">
<path d="M3.321 3.2l14.974 12.8-14.974 12.8"></path>
</symbol>

<symbol id="icon-burger" viewBox="0 0 46 32">
<path stroke-linejoin="miter" stroke-linecap="butt" stroke-miterlimit="4" stroke-width="2.2857" d="M0 16h45.714"></path>
<path stroke-linejoin="miter" stroke-linecap="butt" stroke-miterlimit="4" stroke-width="2.2857" d="M0 29.714h45.714"></path>
<path stroke-linejoin="miter" stroke-linecap="butt" stroke-miterlimit="4" stroke-width="2.2857" d="M0 2.286h45.714"></path>
</symbol>

<symbol id="icon-burger2" viewBox="0 0 46 32">
<path d="M6.4 11.733V9.6h19.2v2.133H6.4zm0 5.334h19.2v-2.133H6.4v2.133zm0 5.333h19.2v-2.133H6.4V22.4z"/>
</symbol>

<symbol id="icon-menu" viewBox="0 0 32 32">
<path d="M6.4 11.733v-2.133h19.2v2.133h-19.2zM6.4 17.067h19.2v-2.133h-19.2v2.133zM6.4 22.4h19.2v-2.133h-19.2v2.133z"></path>
</symbol>

<!-- иконка крестик для закрытия -->
<symbol id="icon-close-btn" viewBox="0 0 32 32">
<path d="M23.734 10.304l-1.504-1.504-5.963 5.962-5.962-5.962-1.504 1.504 5.962 5.962-5.962 5.963 1.504 1.504 5.962-5.963 5.963 5.963 1.504-1.504-5.963-5.963 5.963-5.962z"></path>
</symbol>

  <!-- одна точка -->
<symbol id="icon-ellipse-7" viewBox="0 0 32 32">
<path d="M32 16c0 8.837-7.163 16-16 16s-16-7.163-16-16c0-8.837 7.163-16 16-16s16 7.163 16 16z"></path>
</symbol>

<symbol id="icon-home" viewBox="0 0 35 32">
<path d="M34.253 15.613c0.599-0.659 0.541-1.669-0.129-2.255l-14.772-12.926c-0.671-0.586-1.745-0.574-2.402 0.028l-14.822 13.587c-0.656 0.602-0.689 1.611-0.071 2.252l0.372 0.387c0.617 0.642 1.613 0.718 2.224 0.17l1.108-0.992v14.523c0 0.891 0.722 1.613 1.612 1.613h5.778c0.89 0 1.612-0.721 1.612-1.613v-10.16h7.37v10.16c-0.013 0.89 0.624 1.612 1.515 1.612h6.123c0.89 0 1.613-0.722 1.613-1.613v-14.318c0 0 0.306 0.268 0.683 0.6s1.168 0.066 1.767-0.594l0.42-0.462z"></path>
</symbol>

<symbol id="icon-telegram" viewBox="0 0 44 32">
<path d="M17.343 21.048l-0.675 8.86c0.966 0 1.384-0.387 1.885-0.852l4.527-4.038 9.381 6.412c1.72 0.895 2.933 0.424 3.397-1.477l6.157-26.929 0.002-0.002c0.546-2.374-0.92-3.302-2.596-2.72l-36.194 12.933c-2.47 0.895-2.433 2.18-0.42 2.762l9.253 2.686 21.494-12.552c1.011-0.625 1.931-0.279 1.175 0.346l-17.386 14.57z"></path>
</symbol>

<symbol id="icon-logo" viewBox="0 0 32 32">
<path d="M12.16 0.576c-7.36 2.24-11.776 8.064-11.776 15.424 0 6.016 3.072 11.264 8.128 13.888 2.624 1.344 3.008 0.384 0.576-1.472-1.728-1.408-2.048-2.048-2.048-4.416 0-1.664-0.384-3.008-0.96-3.52-1.152-0.96-1.28-3.456-0.128-4.352 0.448-0.384 0.896-1.664 0.96-2.816 0.32-4.224 4.864-8.192 9.408-8.192s9.088 3.968 9.408 8.192c0.064 1.152 0.512 2.432 0.96 2.816 1.152 0.896 1.024 3.392-0.128 4.352-0.576 0.512-0.96 1.856-0.96 3.52 0 2.368-0.32 3.008-2.048 4.416-2.688 2.112-1.92 2.88 1.088 1.024 4.224-2.624 7.36-8.32 7.36-13.376 0-10.112-10.496-18.304-19.84-15.488z"></path>
<path d="M12.992 8c-1.152 0.512-2.112 1.152-2.112 1.536 0 0.704 3.456 1.984 5.44 1.984s5.44-1.28 5.44-1.984c0-0.768-3.968-2.496-5.568-2.496-0.64 0.064-2.112 0.448-3.2 0.96z"></path>
<path d="M9.344 11.968c-0.192 0.256-0.384 1.088-0.384 1.92 0 1.472 0.064 1.472 7.36 1.472s7.36 0 7.36-1.472c0-2.176-0.576-2.432-2.624-1.408-2.304 1.216-7.168 1.216-9.472 0-1.024-0.512-1.984-0.704-2.24-0.512z"></path>
<path d="M7.488 17.664c-1.024 1.088 0.704 1.536 5.696 1.536h5.376v2.24c0 1.216 0.32 2.24 0.64 2.24 0.384 0 0.64-0.96 0.64-2.176 0-2.112 0.128-2.24 2.56-2.432 1.408-0.128 2.56-0.512 2.56-0.832 0-0.704-16.768-1.28-17.472-0.576z"></path>
<path d="M8.96 23.296c0 3.52 1.216 4.224 7.36 4.224s7.36-0.704 7.36-4.224c0-1.536-0.32-2.176-0.96-2.176-0.576 0-0.96 0.576-0.96 1.536 0 3.584-4.864 3.904-5.568 0.384-0.32-1.856-0.512-1.92-3.776-1.92h-3.456v2.176z"></path>
<path d="M12.928 30.528c0.384 2.048 6.912 1.856 6.912-0.128 0-0.704-0.832-0.96-3.584-0.96-3.008 0-3.52 0.192-3.328 1.088z"></path>
</symbol>

<!-- розовая стрелочка ">" афтер -->
<symbol id="icon-arrow-right" viewBox="0 0 19 32">
<path d="M0.773 26.347l10.347-10.347-10.347-10.347c-0.481-0.481-0.779-1.146-0.779-1.88 0-1.468 1.19-2.659 2.659-2.659 0.734 0 1.399 0.298 1.88 0.779l12.24 12.24c1.040 1.040 1.040 2.72 0 3.76l-12.24 12.24c-0.481 0.482-1.146 0.78-1.88 0.78s-1.399-0.298-1.88-0.78l-0-0c-1.013-1.040-1.040-2.747 0-3.787z"></path>
</symbol>

</defs>
</svg>
