<?xml version="1.0" standalone="no"?>
<!DOCTYPE svg PUBLIC "-//W3C//DTD SVG 20010904//EN"
 "http://www.w3.org/TR/2001/REC-SVG-20010904/DTD/svg10.dtd">
<svg version="1.0" xmlns="http://www.w3.org/2000/svg"
 width="512.000000pt" height="512.000000pt" viewBox="0 0 512.000000 512.000000"
 preserveAspectRatio="xMidYMid meet">
<metadata>
Created by potrace 1.11, written by Peter Selinger 2001-2013
</metadata>
<g transform="translate(0.000000,512.000000) scale(0.100000,-0.100000)"
fill="#000000" stroke="none">
<path d="M3250 4928 c-36 -14 -73 -39 -110 -76 l-55 -56 -100 0 c-90 -1 -106
-4 -158 -30 -63 -32 -137 -105 -164 -160 l-17 -36 -116 0 c-144 0 -239 -22
-365 -84 -211 -105 -362 -293 -416 -523 -17 -72 -20 -112 -17 -222 l3 -134
-59 -39 c-186 -124 -348 -288 -468 -474 -91 -141 -183 -381 -214 -559 -24
-136 -24 -394 0 -530 107 -606 558 -1088 1161 -1239 l90 -23 113 -269 c62
-148 120 -277 129 -286 21 -23 55 -23 76 0 8 9 64 134 123 277 59 143 112 265
117 272 4 7 34 17 65 24 130 27 358 121 476 197 189 122 366 299 488 488 53
82 121 231 158 344 56 171 74 286 74 480 0 194 -18 309 -74 480 -108 330 -325
617 -608 806 l-83 56 7 41 c12 71 7 229 -10 300 -9 38 -30 102 -47 143 l-31
74 33 37 c17 20 44 62 58 93 22 46 26 69 26 145 0 76 -4 99 -26 146 -14 30
-45 75 -68 99 -22 24 -41 46 -41 50 0 14 54 56 102 80 59 29 73 47 65 82 -5
19 -46 51 -60 47 -1 0 -27 -9 -57 -21z m-627 -529 c14 -116 94 -227 204 -281
53 -26 77 -31 136 -32 40 -1 89 3 110 7 l38 8 25 -55 c65 -142 71 -332 15
-494 -31 -89 -32 -94 -16 -119 16 -23 21 -25 67 -20 57 7 91 -6 107 -40 17
-37 13 -62 -15 -89 -21 -22 -31 -25 -62 -20 -78 14 -94 12 -114 -14 -17 -24
-18 -29 -4 -68 18 -49 10 -81 -26 -106 -33 -24 -63 -20 -101 14 -57 49 -117
31 -117 -35 0 -50 -33 -85 -80 -85 -32 0 -44 6 -67 34 -37 45 -63 52 -96 25
-20 -15 -27 -29 -27 -55 0 -45 -37 -84 -80 -84 -43 0 -80 39 -80 84 0 26 -7
40 -27 55 -33 27 -59 20 -96 -25 -23 -28 -35 -34 -67 -34 -46 0 -80 35 -80 83
0 64 -66 89 -110 43 -31 -34 -74 -42 -106 -21 -37 24 -46 57 -28 107 14 39 13
44 -4 68 -20 26 -36 28 -114 14 -31 -5 -41 -2 -62 20 -31 30 -34 74 -7 107 17
21 27 24 79 21 97 -4 110 22 68 138 -118 326 28 684 340 835 95 47 170 63 290
64 l101 1 6 -51z m-591 -2702 c74 -74 162 -96 243 -63 l35 15 48 -47 c74 -75
165 -92 258 -48 28 13 64 40 80 60 l31 36 36 -15 c83 -35 196 -2 257 74 33 41
68 57 56 25 -40 -104 -552 -1324 -556 -1324 -4 0 -533 1258 -556 1323 -11 31
14 18 68 -36z"/>
</g>
</svg>
