<!-- Generated by IcoMoon.io -->
<svg version="1.1" xmlns="http://www.w3.org/2000/svg" width="32" height="32" viewBox="0 0 32 32">
<title>ice-cream-logo</title>
<path d="M15.935 1.208h-0.065c-0.271 0-0.49 0.219-0.49 0.49s0.219 0.49 0.49 0.49h0.065c0.271 0 0.49-0.219 0.49-0.49s-0.219-0.49-0.49-0.49z"></path>
<path d="M17.208 2.188h-0.065c-0.271 0-0.49 0.219-0.49 0.49s0.219 0.49 0.49 0.49h0.065c0.271 0 0.49-0.219 0.49-0.49s-0.219-0.49-0.49-0.49z"></path>
<path d="M14.857 2.188h-0.065c-0.271 0-0.49 0.219-0.49 0.49s0.219 0.49 0.49 0.49h0.065c0.271 0 0.49-0.219 0.49-0.49s-0.219-0.49-0.49-0.49z"></path>
<path d="M9.535 9.894h-0.588c-0.271 0-0.49 0.219-0.49 0.49s0.219 0.49 0.49 0.49h0.588c0.271 0 0.49-0.219 0.49-0.49s-0.219-0.49-0.49-0.49z"></path>
<path d="M11.429 8.849h-0.588c-0.271 0-0.49 0.219-0.49 0.49s0.219 0.49 0.49 0.49h0.588c0.271 0 0.49-0.219 0.49-0.49s-0.219-0.49-0.49-0.49z"></path>
<path d="M13.322 10.090h-0.588c-0.271 0-0.49 0.219-0.49 0.49s0.219 0.49 0.49 0.49h0.588c0.271 0 0.49-0.219 0.49-0.49s-0.219-0.49-0.49-0.49z"></path>
<path d="M15.412 11.265h-0.588c-0.271 0-0.49 0.219-0.49 0.49s0.219 0.49 0.49 0.49h0.588c0.271 0 0.49-0.219 0.49-0.49s-0.219-0.49-0.49-0.49z"></path>
<path d="M11.298 11.265h-0.588c-0.271 0-0.49 0.219-0.49 0.49s0.219 0.49 0.49 0.49h0.588c0.271 0 0.49-0.219 0.49-0.49s-0.219-0.49-0.49-0.49z"></path>
<path d="M25.743 18.384c-0.234-0.136-0.534-0.056-0.669 0.178-0.148 0.255-0.309 0.506-0.479 0.748-0.156 0.221-0.102 0.527 0.119 0.682 0.086 0.060 0.184 0.089 0.281 0.089 0.154 0 0.306-0.073 0.401-0.208 0.186-0.265 0.363-0.541 0.525-0.82 0.136-0.234 0.056-0.534-0.178-0.669z"></path>
<path d="M26.831 14.959c-0.266-0.050-0.521 0.127-0.57 0.393-0.132 0.716-0.343 1.419-0.627 2.090-0.106 0.249 0.011 0.537 0.26 0.642 0.062 0.026 0.127 0.039 0.191 0.039 0.191 0 0.372-0.112 0.451-0.299 0.312-0.736 0.544-1.508 0.689-2.294 0.049-0.266-0.127-0.521-0.393-0.57z"></path>
<path d="M29.077 13.325c-0.168-0.172-0.397-0.275-0.637-0.291-0.015-1.266-1.049-2.291-2.318-2.291-0.112 0-0.222 0.008-0.33 0.024-0.793-1.434-2.138-2.53-3.753-3.010-0.167-0.501-0.398-0.981-0.691-1.429-0.148-0.226-0.452-0.289-0.678-0.141s-0.29 0.452-0.141 0.678c0.14 0.213 0.262 0.435 0.368 0.664-0.227-0.024-0.458-0.037-0.692-0.037-1.611 0-3.083 0.593-4.205 1.568-1.121-0.975-2.594-1.568-4.205-1.568-0.233 0-0.462 0.013-0.688 0.037 0.848-1.821 2.721-3.091 4.893-3.091 1.178 0 2.297 0.367 3.235 1.060 0.217 0.161 0.524 0.115 0.685-0.103s0.115-0.524-0.103-0.685c-0.249-0.184-0.509-0.348-0.778-0.492 0.029-0.199 0.044-0.402 0.044-0.607 0-1.991-1.383-3.611-3.084-3.611-1.179 0-2.205 0.779-2.724 1.92-0.139-0.127-0.29-0.241-0.453-0.341-0.469-0.286-1.009-0.437-1.561-0.437-0.512 0-1.018 0.131-1.464 0.38-0.359 0.2-0.591 0.58-0.604 0.991-0.035 1.081 0.515 2.102 1.436 2.664 0.217 0.133 0.45 0.234 0.692 0.307-0.605 0.647-1.073 1.42-1.36 2.274-0.829 0.246-1.588 0.655-2.236 1.188-0.303-0.145-0.641-0.227-0.998-0.227-1.278 0-2.318 1.040-2.318 2.318 0 0.224 0.033 0.441 0.093 0.646-0.355 0.355-0.595 0.824-0.662 1.347h-0.214c-0.263 0-0.519 0.107-0.702 0.294-0.186 0.19-0.286 0.45-0.276 0.714 0.065 1.634 0.432 3.218 1.091 4.707 0.109 0.247 0.399 0.359 0.646 0.25s0.359-0.399 0.25-0.646c-0.607-1.373-0.946-2.832-1.007-4.339l24.747 0c-0.127 3.134-1.47 6.065-3.781 8.253-0.018 0.018-0.038 0.034-0.056 0.052-0.491-0.347-1.076-0.535-1.688-0.535-0.923 0-1.769 0.431-2.314 1.13-0.545-0.7-1.391-1.13-2.314-1.13s-1.769 0.431-2.314 1.13c-0.545-0.7-1.391-1.13-2.314-1.13s-1.769 0.431-2.314 1.13c-0.545-0.7-1.391-1.13-2.314-1.13-0.564 0-1.111 0.163-1.58 0.464-0.624-0.593-1.184-1.249-1.666-1.949-0.153-0.223-0.458-0.279-0.681-0.126s-0.279 0.458-0.126 0.681c0.526 0.765 1.138 1.48 1.82 2.125 2.029 1.921 4.572 3.142 7.31 3.538v1.022c-1.45 0.557-2.602 1.721-3.122 3.172-0.107 0.299-0.060 0.631 0.126 0.889 0.183 0.254 0.481 0.406 0.796 0.406h4.94c0.271 0 0.49-0.219 0.49-0.49s-0.219-0.49-0.49-0.49l-4.935 0c0.078-0.216 0.175-0.422 0.286-0.621h2.821c0.271 0 0.49-0.219 0.49-0.49s-0.219-0.49-0.49-0.49h-2.071c0.496-0.487 1.11-0.86 1.793-1.070 0.205-0.063 0.346-0.253 0.346-0.468v-1.265c0.324 0.023 0.65 0.035 0.977 0.035s0.653-0.012 0.977-0.035v1.265c0 0.215 0.14 0.405 0.346 0.468 1.312 0.404 2.369 1.402 2.829 2.67h-1.017c-0.271 0-0.49 0.219-0.49 0.49s0.219 0.49 0.49 0.49h1.022c0.315 0 0.613-0.152 0.796-0.406 0.186-0.258 0.233-0.59 0.126-0.889-0.52-1.451-1.673-2.615-3.122-3.172v-1.022c2.737-0.395 5.281-1.617 7.31-3.538 2.5-2.368 3.952-5.541 4.087-8.936 0.011-0.264-0.090-0.524-0.276-0.714zM16 0.98c1.16 0 2.104 1.18 2.104 2.631 0 0.065-0.002 0.13-0.006 0.195-0.667-0.229-1.373-0.348-2.098-0.348-0.735 0-1.441 0.124-2.098 0.351-0.004-0.065-0.007-0.131-0.007-0.197 0-1.451 0.944-2.631 2.104-2.631zM11.139 4.34c-0.62-0.378-0.991-1.066-0.967-1.796 0.002-0.069 0.041-0.133 0.102-0.167 0.301-0.167 0.643-0.256 0.988-0.256 0.372 0 0.736 0.102 1.051 0.294 0.263 0.16 0.48 0.376 0.642 0.627-0.022 0.159-0.034 0.322-0.037 0.488l-0.908-0.554c-0.231-0.141-0.532-0.068-0.673 0.163s-0.068 0.532 0.163 0.673l1.056 0.644c-0.087 0.056-0.173 0.113-0.257 0.173-0.036 0.002-0.072 0.004-0.108 0.004-0.372-0-0.736-0.102-1.051-0.294zM6.726 9.698c0.072 0 0.142 0.006 0.211 0.017-0.336 0.392-0.624 0.825-0.855 1.29-0.241 0.006-0.473 0.049-0.691 0.123-0.002-0.030-0.003-0.061-0.003-0.092 0-0.738 0.601-1.339 1.339-1.339zM4.833 13.030c0.134-0.598 0.668-1.046 1.306-1.046s1.172 0.448 1.306 1.046h-2.611zM8.438 13.030c-0.103-0.815-0.63-1.499-1.353-1.823 0.916-1.629 2.682-2.736 4.71-2.736 2.719 0 4.971 1.988 5.327 4.56h-8.684zM23.805 13.030h-5.694c-0.143-1.235-0.654-2.361-1.421-3.272 0.943-0.802 2.172-1.288 3.515-1.288 1.99 0 3.73 1.066 4.659 2.645-0.629 0.408-1.049 1.113-1.059 1.915zM24.785 13.030c0.017-0.724 0.61-1.308 1.337-1.308s1.32 0.584 1.337 1.308h-2.674zM16 25.673c-2.877 0-5.62-0.968-7.828-2.744 0.248-0.111 0.519-0.17 0.796-0.17 0.838 0 1.581 0.534 1.85 1.327 0.067 0.199 0.254 0.333 0.464 0.333s0.397-0.134 0.464-0.333c0.268-0.794 1.011-1.327 1.85-1.327s1.581 0.534 1.85 1.327c0.067 0.199 0.254 0.333 0.464 0.333s0.397-0.134 0.464-0.333c0.268-0.794 1.011-1.327 1.85-1.327s1.581 0.534 1.85 1.327c0.067 0.199 0.254 0.333 0.464 0.333s0.397-0.134 0.464-0.333c0.268-0.794 1.011-1.327 1.85-1.327 0.322 0 0.633 0.078 0.91 0.225-2.196 1.741-4.912 2.689-7.759 2.689z"></path>
</svg>
