<svg width="32" height="32" xmlns="http://www.w3.org/2000/svg">
 <title>ice-cream-logo</title>

 <g>
  <title>background</title>
  <rect fill="none" id="canvas_background" height="402" width="582" y="-1" x="-1"/>
 </g>
 <g>
  <title>Layer 1</title>
  <path fill="#ffa5ba" id="svg_1" d="m15.935,1.208l-0.065,0c-0.271,0 -0.49,0.219 -0.49,0.49s0.219,0.49 0.49,0.49l0.065,0c0.271,0 0.49,-0.219 0.49,-0.49s-0.219,-0.49 -0.49,-0.49z"/>
  <path fill="#ffa5ba" id="svg_2" d="m17.208,2.188l-0.065,0c-0.271,0 -0.49,0.219 -0.49,0.49s0.219,0.49 0.49,0.49l0.065,0c0.271,0 0.49,-0.219 0.49,-0.49s-0.219,-0.49 -0.49,-0.49z"/>
  <path fill="#ffa5ba" id="svg_3" d="m14.857,2.188l-0.065,0c-0.271,0 -0.49,0.219 -0.49,0.49s0.219,0.49 0.49,0.49l0.065,0c0.271,0 0.49,-0.219 0.49,-0.49s-0.219,-0.49 -0.49,-0.49z"/>
  <path fill="#ffa5ba" id="svg_4" d="m9.535,9.894l-0.588,0c-0.271,0 -0.49,0.219 -0.49,0.49s0.219,0.49 0.49,0.49l0.588,0c0.271,0 0.49,-0.219 0.49,-0.49s-0.219,-0.49 -0.49,-0.49z"/>
  <path fill="#ffa5ba" id="svg_5" d="m11.429,8.849l-0.588,0c-0.271,0 -0.49,0.219 -0.49,0.49s0.219,0.49 0.49,0.49l0.588,0c0.271,0 0.49,-0.219 0.49,-0.49s-0.219,-0.49 -0.49,-0.49z"/>
  <path fill="#ffa5ba" id="svg_6" d="m13.322,10.09l-0.588,0c-0.271,0 -0.49,0.219 -0.49,0.49s0.219,0.49 0.49,0.49l0.588,0c0.271,0 0.49,-0.219 0.49,-0.49s-0.219,-0.49 -0.49,-0.49z"/>
  <path fill="#ffa5ba" id="svg_7" d="m15.412,11.265l-0.588,0c-0.271,0 -0.49,0.219 -0.49,0.49s0.219,0.49 0.49,0.49l0.588,0c0.271,0 0.49,-0.219 0.49,-0.49s-0.219,-0.49 -0.49,-0.49z"/>
  <path fill="#ffa5ba" id="svg_8" d="m11.298,11.265l-0.588,0c-0.271,0 -0.49,0.219 -0.49,0.49s0.219,0.49 0.49,0.49l0.588,0c0.271,0 0.49,-0.219 0.49,-0.49s-0.219,-0.49 -0.49,-0.49z"/>
  <path fill="#ffa5ba" id="svg_9" d="m25.743,18.384c-0.234,-0.136 -0.534,-0.056 -0.669,0.178c-0.148,0.255 -0.309,0.506 -0.479,0.748c-0.156,0.221 -0.102,0.527 0.119,0.682c0.086,0.06 0.184,0.089 0.281,0.089c0.154,0 0.306,-0.073 0.401,-0.208c0.186,-0.265 0.363,-0.541 0.525,-0.82c0.136,-0.234 0.056,-0.534 -0.178,-0.669z"/>
  <path fill="#ffa5ba" id="svg_10" d="m26.831,14.959c-0.266,-0.05 -0.521,0.127 -0.57,0.393c-0.132,0.716 -0.343,1.419 -0.627,2.09c-0.106,0.249 0.011,0.537 0.26,0.642c0.062,0.026 0.127,0.039 0.191,0.039c0.191,0 0.372,-0.112 0.451,-0.299c0.312,-0.736 0.544,-1.508 0.689,-2.294c0.049,-0.266 -0.127,-0.521 -0.393,-0.57l-0.001,-0.001z"/>
  <path fill="#ffa5ba" id="svg_11" d="m29.077,13.325c-0.168,-0.172 -0.397,-0.275 -0.637,-0.291c-0.015,-1.266 -1.049,-2.291 -2.318,-2.291c-0.112,0 -0.222,0.008 -0.33,0.024c-0.793,-1.434 -2.138,-2.53 -3.753,-3.01c-0.167,-0.501 -0.398,-0.981 -0.691,-1.429c-0.148,-0.226 -0.452,-0.289 -0.678,-0.141s-0.29,0.452 -0.141,0.678c0.14,0.213 0.262,0.435 0.368,0.664c-0.227,-0.024 -0.458,-0.037 -0.692,-0.037c-1.611,0 -3.083,0.593 -4.205,1.568c-1.121,-0.975 -2.594,-1.568 -4.205,-1.568c-0.233,0 -0.462,0.013 -0.688,0.037c0.848,-1.821 2.721,-3.091 4.893,-3.091c1.178,0 2.297,0.367 3.235,1.06c0.217,0.161 0.524,0.115 0.685,-0.103s0.115,-0.524 -0.103,-0.685c-0.249,-0.184 -0.509,-0.348 -0.778,-0.492c0.029,-0.199 0.044,-0.402 0.044,-0.607c0,-1.991 -1.383,-3.611 -3.084,-3.611c-1.179,0 -2.205,0.779 -2.724,1.92c-0.139,-0.127 -0.29,-0.241 -0.453,-0.341c-0.469,-0.286 -1.009,-0.437 -1.561,-0.437c-0.512,0 -1.018,0.131 -1.464,0.38c-0.359,0.2 -0.591,0.58 -0.604,0.991c-0.035,1.081 0.515,2.102 1.436,2.664c0.217,0.133 0.45,0.234 0.692,0.307c-0.605,0.647 -1.073,1.42 -1.36,2.274c-0.829,0.246 -1.588,0.655 -2.236,1.188c-0.303,-0.145 -0.641,-0.227 -0.998,-0.227c-1.278,0 -2.318,1.04 -2.318,2.318c0,0.224 0.033,0.441 0.093,0.646c-0.355,0.355 -0.595,0.824 -0.662,1.347l-0.214,0c-0.263,0 -0.519,0.107 -0.702,0.294c-0.186,0.19 -0.286,0.45 -0.276,0.714c0.065,1.634 0.432,3.218 1.091,4.707c0.109,0.247 0.399,0.359 0.646,0.25s0.359,-0.399 0.25,-0.646c-0.607,-1.373 -0.946,-2.832 -1.007,-4.339l24.747,0c-0.127,3.134 -1.47,6.065 -3.781,8.253c-0.018,0.018 -0.038,0.034 -0.056,0.052c-0.491,-0.347 -1.076,-0.535 -1.688,-0.535c-0.923,0 -1.769,0.431 -2.314,1.13c-0.545,-0.7 -1.391,-1.13 -2.314,-1.13s-1.769,0.431 -2.314,1.13c-0.545,-0.7 -1.391,-1.13 -2.314,-1.13s-1.769,0.431 -2.314,1.13c-0.545,-0.7 -1.391,-1.13 -2.314,-1.13c-0.564,0 -1.111,0.163 -1.58,0.464c-0.624,-0.593 -1.184,-1.249 -1.666,-1.949c-0.153,-0.223 -0.458,-0.279 -0.681,-0.126s-0.279,0.458 -0.126,0.681c0.526,0.765 1.138,1.48 1.82,2.125c2.029,1.921 4.572,3.142 7.31,3.538l0,1.022c-1.45,0.557 -2.602,1.721 -3.122,3.172c-0.107,0.299 -0.06,0.631 0.126,0.889c0.183,0.254 0.481,0.406 0.796,0.406l4.94,0c0.271,0 0.49,-0.219 0.49,-0.49s-0.219,-0.49 -0.49,-0.49l-4.935,0c0.078,-0.216 0.175,-0.422 0.286,-0.621l2.821,0c0.271,0 0.49,-0.219 0.49,-0.49s-0.219,-0.49 -0.49,-0.49l-2.071,0c0.496,-0.487 1.11,-0.86 1.793,-1.07c0.205,-0.063 0.346,-0.253 0.346,-0.468l0,-1.265c0.324,0.023 0.65,0.035 0.977,0.035s0.653,-0.012 0.977,-0.035l0,1.265c0,0.215 0.14,0.405 0.346,0.468c1.312,0.404 2.369,1.402 2.829,2.67l-1.017,0c-0.271,0 -0.49,0.219 -0.49,0.49s0.219,0.49 0.49,0.49l1.022,0c0.315,0 0.613,-0.152 0.796,-0.406c0.186,-0.258 0.233,-0.59 0.126,-0.889c-0.52,-1.451 -1.673,-2.615 -3.122,-3.172l0,-1.022c2.737,-0.395 5.281,-1.617 7.31,-3.538c2.5,-2.368 3.952,-5.541 4.087,-8.936c0.011,-0.264 -0.09,-0.524 -0.276,-0.714l-0.001,0.001zm-13.077,-12.345c1.16,0 2.104,1.18 2.104,2.631c0,0.065 -0.002,0.13 -0.006,0.195c-0.667,-0.229 -1.373,-0.348 -2.098,-0.348c-0.735,0 -1.441,0.124 -2.098,0.351c-0.004,-0.065 -0.007,-0.131 -0.007,-0.197c0,-1.451 0.944,-2.631 2.104,-2.631l0.001,-0.001zm-4.861,3.36c-0.62,-0.378 -0.991,-1.066 -0.967,-1.796c0.002,-0.069 0.041,-0.133 0.102,-0.167c0.301,-0.167 0.643,-0.256 0.988,-0.256c0.372,0 0.736,0.102 1.051,0.294c0.263,0.16 0.48,0.376 0.642,0.627c-0.022,0.159 -0.034,0.322 -0.037,0.488l-0.908,-0.554c-0.231,-0.141 -0.532,-0.068 -0.673,0.163s-0.068,0.532 0.163,0.673l1.056,0.644c-0.087,0.056 -0.173,0.113 -0.257,0.173c-0.036,0.002 -0.072,0.004 -0.108,0.004c-0.372,0 -0.736,-0.102 -1.051,-0.294l-0.001,0.001zm-4.413,5.358c0.072,0 0.142,0.006 0.211,0.017c-0.336,0.392 -0.624,0.825 -0.855,1.29c-0.241,0.006 -0.473,0.049 -0.691,0.123c-0.002,-0.03 -0.003,-0.061 -0.003,-0.092c0,-0.738 0.601,-1.339 1.339,-1.339l-0.001,0.001zm-1.893,3.332c0.134,-0.598 0.668,-1.046 1.306,-1.046s1.172,0.448 1.306,1.046l-2.611,0l-0.001,0zm3.605,0c-0.103,-0.815 -0.63,-1.499 -1.353,-1.823c0.916,-1.629 2.682,-2.736 4.71,-2.736c2.719,0 4.971,1.988 5.327,4.56l-8.684,0l0,-0.001zm15.367,0l-5.694,0c-0.143,-1.235 -0.654,-2.361 -1.421,-3.272c0.943,-0.802 2.172,-1.288 3.515,-1.288c1.99,0 3.73,1.066 4.659,2.645c-0.629,0.408 -1.049,1.113 -1.059,1.915zm0.98,0c0.017,-0.724 0.61,-1.308 1.337,-1.308s1.32,0.584 1.337,1.308l-2.674,0zm-8.785,12.643c-2.877,0 -5.62,-0.968 -7.828,-2.744c0.248,-0.111 0.519,-0.17 0.796,-0.17c0.838,0 1.581,0.534 1.85,1.327c0.067,0.199 0.254,0.333 0.464,0.333s0.397,-0.134 0.464,-0.333c0.268,-0.794 1.011,-1.327 1.85,-1.327s1.581,0.534 1.85,1.327c0.067,0.199 0.254,0.333 0.464,0.333s0.397,-0.134 0.464,-0.333c0.268,-0.794 1.011,-1.327 1.85,-1.327s1.581,0.534 1.85,1.327c0.067,0.199 0.254,0.333 0.464,0.333s0.397,-0.134 0.464,-0.333c0.268,-0.794 1.011,-1.327 1.85,-1.327c0.322,0 0.633,0.078 0.91,0.225c-2.196,1.741 -4.912,2.689 -7.759,2.689l-0.003,0z"/>
 </g>
</svg>