<svg aria-hidden="true" style="position: absolute; width: 0; height: 0; overflow: hidden;" version="1.1" xmlns="http://www.w3.org/2000/svg" xmlns:xlink="http://www.w3.org/1999/xlink">
<defs>

<symbol id="icon-arrow-right2" viewBox="0 0 32 32">
<path d="M19.414 27.414l10-10c0.781-0.781 0.781-2.047 0-2.828l-10-10c-0.781-0.781-2.047-0.781-2.828 0s-0.781 2.047 0 2.828l6.586 6.586h-19.172c-1.105 0-2 0.895-2 2s0.895 2 2 2h19.172l-6.586 6.586c-0.39 0.39-0.586 0.902-0.586 1.414s0.195 1.024 0.586 1.414c0.781 0.781 2.047 0.781 2.828 0z"></path>
</symbol>

<symbol id="icon-facebook" viewBox="0 0 32 32">
<path d="M19 6h5v-6h-5c-3.86 0-7 3.14-7 7v3h-4v6h4v16h6v-16h5l1-6h-6v-3c0-0.542 0.458-1 1-1z"></path>
</symbol>

<symbol id="icon-github" viewBox="0 0 32 32">
<path d="M16 0.395c-8.836 0-16 7.163-16 16 0 7.069 4.585 13.067 10.942 15.182 0.8 0.148 1.094-0.347 1.094-0.77 0-0.381-0.015-1.642-0.022-2.979-4.452 0.968-5.391-1.888-5.391-1.888-0.728-1.849-1.776-2.341-1.776-2.341-1.452-0.993 0.11-0.973 0.11-0.973 1.606 0.113 2.452 1.649 2.452 1.649 1.427 2.446 3.743 1.739 4.656 1.33 0.143-1.034 0.558-1.74 1.016-2.14-3.554-0.404-7.29-1.777-7.29-7.907 0-1.747 0.625-3.174 1.649-4.295-0.166-0.403-0.714-2.030 0.155-4.234 0 0 1.344-0.43 4.401 1.64 1.276-0.355 2.645-0.532 4.005-0.539 1.359 0.006 2.729 0.184 4.008 0.539 3.054-2.070 4.395-1.64 4.395-1.64 0.871 2.204 0.323 3.831 0.157 4.234 1.026 1.12 1.647 2.548 1.647 4.295 0 6.145-3.743 7.498-7.306 7.895 0.574 0.497 1.085 1.47 1.085 2.963 0 2.141-0.019 3.864-0.019 4.391 0 0.426 0.288 0.925 1.099 0.768 6.354-2.118 10.933-8.113 10.933-15.18 0-8.837-7.164-16-16-16z"></path>
</symbol>

<symbol id="icon-bracket-right" viewBox="0 0 22 32">
<path d="M3.321 3.2l14.974 12.8-14.974 12.8"></path>
</symbol>

<symbol id="icon-burger" viewBox="0 0 46 32">
<path stroke-linejoin="miter" stroke-linecap="butt" stroke-miterlimit="4" stroke-width="2.2857" d="M0 16h45.714"></path>
<path stroke-linejoin="miter" stroke-linecap="butt" stroke-miterlimit="4" stroke-width="2.2857" d="M0 29.714h45.714"></path>
<path stroke-linejoin="miter" stroke-linecap="butt" stroke-miterlimit="4" stroke-width="2.2857" d="M0 2.286h45.714"></path>
</symbol>

<symbol id="icon-burger2" viewBox="0 0 46 32">
<path d="M6.4 11.733V9.6h19.2v2.133H6.4zm0 5.334h19.2v-2.133H6.4v2.133zm0 5.333h19.2v-2.133H6.4V22.4z"/>
</symbol>

<!-- иконка крестик для закрытия -->
<symbol id="icon-close-btn" viewBox="0 0 32 32">
<path d="M23.734 10.304l-1.504-1.504-5.963 5.962-5.962-5.962-1.504 1.504 5.962 5.962-5.962 5.963 1.504 1.504 5.962-5.963 5.963 5.963 1.504-1.504-5.963-5.963 5.963-5.962z"></path>
</symbol>

  <!-- одна точка -->
<symbol id="icon-ellipse-7" viewBox="0 0 32 32">
<path d="M32 16c0 8.837-7.163 16-16 16s-16-7.163-16-16c0-8.837 7.163-16 16-16s16 7.163 16 16z"></path>
</symbol>

<symbol id="icon-home" viewBox="0 0 35 32">
<path d="M34.253 15.613c0.599-0.659 0.541-1.669-0.129-2.255l-14.772-12.926c-0.671-0.586-1.745-0.574-2.402 0.028l-14.822 13.587c-0.656 0.602-0.689 1.611-0.071 2.252l0.372 0.387c0.617 0.642 1.613 0.718 2.224 0.17l1.108-0.992v14.523c0 0.891 0.722 1.613 1.612 1.613h5.778c0.89 0 1.612-0.721 1.612-1.613v-10.16h7.37v10.16c-0.013 0.89 0.624 1.612 1.515 1.612h6.123c0.89 0 1.613-0.722 1.613-1.613v-14.318c0 0 0.306 0.268 0.683 0.6s1.168 0.066 1.767-0.594l0.42-0.462z"></path>
</symbol>

<symbol id="icon-telegram" viewBox="0 0 44 32">
<path d="M17.343 21.048l-0.675 8.86c0.966 0 1.384-0.387 1.885-0.852l4.527-4.038 9.381 6.412c1.72 0.895 2.933 0.424 3.397-1.477l6.157-26.929 0.002-0.002c0.546-2.374-0.92-3.302-2.596-2.72l-36.194 12.933c-2.47 0.895-2.433 2.18-0.42 2.762l9.253 2.686 21.494-12.552c1.011-0.625 1.931-0.279 1.175 0.346l-17.386 14.57z"></path>
</symbol>

<symbol id="icon-logo" viewBox="0 0 32 32">
<path d="M12.16 0.576c-7.36 2.24-11.776 8.064-11.776 15.424 0 6.016 3.072 11.264 8.128 13.888 2.624 1.344 3.008 0.384 0.576-1.472-1.728-1.408-2.048-2.048-2.048-4.416 0-1.664-0.384-3.008-0.96-3.52-1.152-0.96-1.28-3.456-0.128-4.352 0.448-0.384 0.896-1.664 0.96-2.816 0.32-4.224 4.864-8.192 9.408-8.192s9.088 3.968 9.408 8.192c0.064 1.152 0.512 2.432 0.96 2.816 1.152 0.896 1.024 3.392-0.128 4.352-0.576 0.512-0.96 1.856-0.96 3.52 0 2.368-0.32 3.008-2.048 4.416-2.688 2.112-1.92 2.88 1.088 1.024 4.224-2.624 7.36-8.32 7.36-13.376 0-10.112-10.496-18.304-19.84-15.488z"></path>
<path d="M12.992 8c-1.152 0.512-2.112 1.152-2.112 1.536 0 0.704 3.456 1.984 5.44 1.984s5.44-1.28 5.44-1.984c0-0.768-3.968-2.496-5.568-2.496-0.64 0.064-2.112 0.448-3.2 0.96z"></path>
<path d="M9.344 11.968c-0.192 0.256-0.384 1.088-0.384 1.92 0 1.472 0.064 1.472 7.36 1.472s7.36 0 7.36-1.472c0-2.176-0.576-2.432-2.624-1.408-2.304 1.216-7.168 1.216-9.472 0-1.024-0.512-1.984-0.704-2.24-0.512z"></path>
<path d="M7.488 17.664c-1.024 1.088 0.704 1.536 5.696 1.536h5.376v2.24c0 1.216 0.32 2.24 0.64 2.24 0.384 0 0.64-0.96 0.64-2.176 0-2.112 0.128-2.24 2.56-2.432 1.408-0.128 2.56-0.512 2.56-0.832 0-0.704-16.768-1.28-17.472-0.576z"></path>
<path d="M8.96 23.296c0 3.52 1.216 4.224 7.36 4.224s7.36-0.704 7.36-4.224c0-1.536-0.32-2.176-0.96-2.176-0.576 0-0.96 0.576-0.96 1.536 0 3.584-4.864 3.904-5.568 0.384-0.32-1.856-0.512-1.92-3.776-1.92h-3.456v2.176z"></path>
<path d="M12.928 30.528c0.384 2.048 6.912 1.856 6.912-0.128 0-0.704-0.832-0.96-3.584-0.96-3.008 0-3.52 0.192-3.328 1.088z"></path>
</symbol>

<!-- розовая стрелочка ">" афтер -->
<symbol id="icon-arrow-right" viewBox="0 0 19 32">
<path d="M0.773 26.347l10.347-10.347-10.347-10.347c-0.481-0.481-0.779-1.146-0.779-1.88 0-1.468 1.19-2.659 2.659-2.659 0.734 0 1.399 0.298 1.88 0.779l12.24 12.24c1.040 1.040 1.040 2.72 0 3.76l-12.24 12.24c-0.481 0.482-1.146 0.78-1.88 0.78s-1.399-0.298-1.88-0.78l-0-0c-1.013-1.040-1.040-2.747 0-3.787z"></path>
</symbol>

</defs>
</svg>
